<?xml version="1.0" encoding="UTF-8" standalone="no"?>
<!DOCTYPE svg PUBLIC "-//W3C//DTD SVG 1.1//EN"
 "http://www.w3.org/Graphics/SVG/1.1/DTD/svg11.dtd">
<!-- Generated by graphviz version 2.47.0 (20210316.0004)
 -->
<!-- Title: dependencies Pages: 1 -->
<svg width="504pt" height="211pt"
 viewBox="0.00 0.00 504.00 211.00" xmlns="http://www.w3.org/2000/svg" xmlns:xlink="http://www.w3.org/1999/xlink">
<g id="graph0" class="graph" transform="scale(1 1) rotate(0) translate(4 207)">
<title>dependencies</title>
<polygon fill="white" stroke="transparent" points="-4,4 -4,-207 500,-207 500,4 -4,4"/>
<text text-anchor="start" x="227.01" y="-42.4" font-family="Times-12" font-weight="bold" font-size="14.00">Legend</text>
<polygon fill="#ffffb3" stroke="transparent" points="14,-10 14,-30 34,-30 34,-10 14,-10"/>
<text text-anchor="start" x="37.63" y="-15.4" font-family="Times-12" font-size="14.00"> &#160;Declarations</text>
<polygon fill="#8dd3c7" stroke="transparent" points="127,-10 127,-30 147,-30 147,-10 127,-10"/>
<text text-anchor="start" x="150.73" y="-15.4" font-family="Times-12" font-size="14.00"> &#160;Module</text>
<polygon fill="#80b1d3" stroke="transparent" points="213,-10 213,-30 233,-30 233,-10 213,-10"/>
<text text-anchor="start" x="236.78" y="-15.4" font-family="Times-12" font-size="14.00"> &#160;Bootstrap</text>
<polygon fill="#fdb462" stroke="transparent" points="310,-10 310,-30 330,-30 330,-10 310,-10"/>
<text text-anchor="start" x="333.67" y="-15.4" font-family="Times-12" font-size="14.00"> &#160;Providers</text>
<polygon fill="#fb8072" stroke="transparent" points="406,-10 406,-30 426,-30 426,-10 406,-10"/>
<text text-anchor="start" x="429.73" y="-15.4" font-family="Times-12" font-size="14.00"> &#160;Exports</text>
<g id="clust1" class="cluster">
<title>cluster_StatsModule</title>
<polygon fill="none" stroke="black" stroke-dasharray="1,5" points="22,-70 22,-195 474,-195 474,-70 22,-70"/>
</g>
<g id="clust5" class="cluster">
<title>cluster_StatsModule_imports</title>
<polygon fill="none" stroke="black" points="318,-78 318,-130 466,-130 466,-78 318,-78"/>
</g>
<g id="clust2" class="cluster">
<title>cluster_StatsModule_declarations</title>
<polygon fill="none" stroke="black" points="30,-78 30,-130 310,-130 310,-78 30,-78"/>
</g>
<!-- SDeckComponent -->
<g id="node1" class="node">
<title>SDeckComponent</title>
<polygon fill="#ffffb3" stroke="black" points="302.15,-122 183.85,-122 183.85,-86 302.15,-86 302.15,-122"/>
<text text-anchor="middle" x="243" y="-99.8" font-family="Times,serif" font-size="14.00">SDeckComponent</text>
</g>
<!-- StatsModule -->
<g id="node3" class="node">
<title>StatsModule</title>
<polygon fill="#8dd3c7" stroke="black" points="286.27,-187 283.27,-191 262.27,-191 259.27,-187 199.73,-187 199.73,-151 286.27,-151 286.27,-187"/>
<text text-anchor="middle" x="243" y="-164.8" font-family="Times,serif" font-size="14.00">StatsModule</text>
</g>
<!-- SDeckComponent&#45;&gt;StatsModule -->
<g id="edge1" class="edge">
<title>SDeckComponent&#45;&gt;StatsModule</title>
<path fill="none" stroke="black" d="M243,-122.11C243,-122.11 243,-140.99 243,-140.99"/>
<polygon fill="black" stroke="black" points="239.5,-140.99 243,-150.99 246.5,-140.99 239.5,-140.99"/>
</g>
<!-- SGlobalComponent -->
<g id="node2" class="node">
<title>SGlobalComponent</title>
<polygon fill="#ffffb3" stroke="black" points="165.72,-122 38.28,-122 38.28,-86 165.72,-86 165.72,-122"/>
<text text-anchor="middle" x="102" y="-99.8" font-family="Times,serif" font-size="14.00">SGlobalComponent</text>
</g>
<!-- SGlobalComponent&#45;&gt;StatsModule -->
<g id="edge2" class="edge">
<title>SGlobalComponent&#45;&gt;StatsModule</title>
<path fill="none" stroke="black" d="M102,-122.11C102,-141.34 102,-169 102,-169 102,-169 189.54,-169 189.54,-169"/>
<polygon fill="black" stroke="black" points="189.54,-172.5 199.54,-169 189.54,-165.5 189.54,-172.5"/>
</g>
<!-- StatsRoutingModule -->
<g id="node4" class="node">
<title>StatsRoutingModule</title>
<polygon fill="#8dd3c7" stroke="black" points="457.89,-122 454.89,-126 433.89,-126 430.89,-122 326.11,-122 326.11,-86 457.89,-86 457.89,-122"/>
<text text-anchor="middle" x="392" y="-99.8" font-family="Times,serif" font-size="14.00">StatsRoutingModule</text>
</g>
<!-- StatsRoutingModule&#45;&gt;StatsModule -->
<g id="edge3" class="edge">
<title>StatsRoutingModule&#45;&gt;StatsModule</title>
<path fill="none" stroke="black" d="M392,-122.11C392,-141.34 392,-169 392,-169 392,-169 296.5,-169 296.5,-169"/>
<polygon fill="black" stroke="black" points="296.5,-165.5 286.5,-169 296.5,-172.5 296.5,-165.5"/>
</g>
</g>
</svg>
