<?xml version="1.0" encoding="UTF-8" standalone="no"?>
<!DOCTYPE svg PUBLIC "-//W3C//DTD SVG 1.1//EN"
 "http://www.w3.org/Graphics/SVG/1.1/DTD/svg11.dtd">
<!-- Generated by graphviz version 2.47.0 (20210316.0004)
 -->
<!-- Title: dependencies Pages: 1 -->
<svg width="1039pt" height="211pt"
 viewBox="0.00 0.00 1039.00 211.00" xmlns="http://www.w3.org/2000/svg" xmlns:xlink="http://www.w3.org/1999/xlink">
<g id="graph0" class="graph" transform="scale(1 1) rotate(0) translate(4 207)">
<title>dependencies</title>
<polygon fill="white" stroke="transparent" points="-4,4 -4,-207 1035,-207 1035,4 -4,4"/>
<text text-anchor="start" x="494.51" y="-42.4" font-family="Times-12" font-weight="bold" font-size="14.00">Legend</text>
<polygon fill="#ffffb3" stroke="transparent" points="281.5,-10 281.5,-30 301.5,-30 301.5,-10 281.5,-10"/>
<text text-anchor="start" x="305.13" y="-15.4" font-family="Times-12" font-size="14.00"> &#160;Declarations</text>
<polygon fill="#8dd3c7" stroke="transparent" points="394.5,-10 394.5,-30 414.5,-30 414.5,-10 394.5,-10"/>
<text text-anchor="start" x="418.23" y="-15.4" font-family="Times-12" font-size="14.00"> &#160;Module</text>
<polygon fill="#80b1d3" stroke="transparent" points="480.5,-10 480.5,-30 500.5,-30 500.5,-10 480.5,-10"/>
<text text-anchor="start" x="504.28" y="-15.4" font-family="Times-12" font-size="14.00"> &#160;Bootstrap</text>
<polygon fill="#fdb462" stroke="transparent" points="577.5,-10 577.5,-30 597.5,-30 597.5,-10 577.5,-10"/>
<text text-anchor="start" x="601.17" y="-15.4" font-family="Times-12" font-size="14.00"> &#160;Providers</text>
<polygon fill="#fb8072" stroke="transparent" points="673.5,-10 673.5,-30 693.5,-30 693.5,-10 673.5,-10"/>
<text text-anchor="start" x="697.23" y="-15.4" font-family="Times-12" font-size="14.00"> &#160;Exports</text>
<g id="clust1" class="cluster">
<title>cluster_DecksModule</title>
<polygon fill="none" stroke="black" stroke-dasharray="1,5" points="8,-70 8,-195 1023,-195 1023,-70 8,-70"/>
</g>
<g id="clust9" class="cluster">
<title>cluster_DecksModule_imports</title>
<polygon fill="none" stroke="black" points="859,-78 859,-130 1015,-130 1015,-78 859,-78"/>
</g>
<g id="clust2" class="cluster">
<title>cluster_DecksModule_declarations</title>
<polygon fill="none" stroke="black" points="16,-78 16,-130 851,-130 851,-78 16,-78"/>
</g>
<!-- DAddComponent -->
<g id="node1" class="node">
<title>DAddComponent</title>
<polygon fill="#ffffb3" stroke="black" points="842.55,-122 727.45,-122 727.45,-86 842.55,-86 842.55,-122"/>
<text text-anchor="middle" x="785" y="-99.8" font-family="Times,serif" font-size="14.00">DAddComponent</text>
</g>
<!-- DecksModule -->
<g id="node7" class="node">
<title>DecksModule</title>
<polygon fill="#8dd3c7" stroke="black" points="544.03,-187 541.03,-191 520.03,-191 517.03,-187 449.97,-187 449.97,-151 544.03,-151 544.03,-187"/>
<text text-anchor="middle" x="497" y="-164.8" font-family="Times,serif" font-size="14.00">DecksModule</text>
</g>
<!-- DAddComponent&#45;&gt;DecksModule -->
<g id="edge1" class="edge">
<title>DAddComponent&#45;&gt;DecksModule</title>
<path fill="none" stroke="black" d="M785,-122.11C785,-141.34 785,-169 785,-169 785,-169 554.23,-169 554.23,-169"/>
<polygon fill="black" stroke="black" points="554.23,-165.5 544.23,-169 554.23,-172.5 554.23,-165.5"/>
</g>
<!-- DDeleteComponent -->
<g id="node2" class="node">
<title>DDeleteComponent</title>
<polygon fill="#ffffb3" stroke="black" points="708.97,-122 581.03,-122 581.03,-86 708.97,-86 708.97,-122"/>
<text text-anchor="middle" x="645" y="-99.8" font-family="Times,serif" font-size="14.00">DDeleteComponent</text>
</g>
<!-- DDeleteComponent&#45;&gt;DecksModule -->
<g id="edge2" class="edge">
<title>DDeleteComponent&#45;&gt;DecksModule</title>
<path fill="none" stroke="black" d="M645,-122.03C645,-138.4 645,-160 645,-160 645,-160 554.24,-160 554.24,-160"/>
<polygon fill="black" stroke="black" points="554.24,-156.5 544.24,-160 554.24,-163.5 554.24,-156.5"/>
</g>
<!-- DDetailsComponent -->
<g id="node3" class="node">
<title>DDetailsComponent</title>
<polygon fill="#ffffb3" stroke="black" points="562.59,-122 431.41,-122 431.41,-86 562.59,-86 562.59,-122"/>
<text text-anchor="middle" x="497" y="-99.8" font-family="Times,serif" font-size="14.00">DDetailsComponent</text>
</g>
<!-- DDetailsComponent&#45;&gt;DecksModule -->
<g id="edge3" class="edge">
<title>DDetailsComponent&#45;&gt;DecksModule</title>
<path fill="none" stroke="black" d="M497,-122.11C497,-122.11 497,-140.99 497,-140.99"/>
<polygon fill="black" stroke="black" points="493.5,-140.99 497,-150.99 500.5,-140.99 493.5,-140.99"/>
</g>
<!-- DEditComponent -->
<g id="node4" class="node">
<title>DEditComponent</title>
<polygon fill="#ffffb3" stroke="black" points="413.27,-122 298.73,-122 298.73,-86 413.27,-86 413.27,-122"/>
<text text-anchor="middle" x="356" y="-99.8" font-family="Times,serif" font-size="14.00">DEditComponent</text>
</g>
<!-- DEditComponent&#45;&gt;DecksModule -->
<g id="edge4" class="edge">
<title>DEditComponent&#45;&gt;DecksModule</title>
<path fill="none" stroke="black" d="M356,-122.03C356,-138.4 356,-160 356,-160 356,-160 439.66,-160 439.66,-160"/>
<polygon fill="black" stroke="black" points="439.66,-163.5 449.66,-160 439.66,-156.5 439.66,-163.5"/>
</g>
<!-- DIndexComponent -->
<g id="node5" class="node">
<title>DIndexComponent</title>
<polygon fill="#ffffb3" stroke="black" points="280.81,-122 157.19,-122 157.19,-86 280.81,-86 280.81,-122"/>
<text text-anchor="middle" x="219" y="-99.8" font-family="Times,serif" font-size="14.00">DIndexComponent</text>
</g>
<!-- DIndexComponent&#45;&gt;DecksModule -->
<g id="edge5" class="edge">
<title>DIndexComponent&#45;&gt;DecksModule</title>
<path fill="none" stroke="black" d="M219,-122.11C219,-141.34 219,-169 219,-169 219,-169 439.84,-169 439.84,-169"/>
<polygon fill="black" stroke="black" points="439.84,-172.5 449.84,-169 439.84,-165.5 439.84,-172.5"/>
</g>
<!-- DTestComponent -->
<g id="node6" class="node">
<title>DTestComponent</title>
<polygon fill="#ffffb3" stroke="black" points="139.54,-122 24.46,-122 24.46,-86 139.54,-86 139.54,-122"/>
<text text-anchor="middle" x="82" y="-99.8" font-family="Times,serif" font-size="14.00">DTestComponent</text>
</g>
<!-- DTestComponent&#45;&gt;DecksModule -->
<g id="edge6" class="edge">
<title>DTestComponent&#45;&gt;DecksModule</title>
<path fill="none" stroke="black" d="M82,-122.29C82,-144.21 82,-178 82,-178 82,-178 439.8,-178 439.8,-178"/>
<polygon fill="black" stroke="black" points="439.8,-181.5 449.8,-178 439.8,-174.5 439.8,-181.5"/>
</g>
<!-- DecksRoutingModule -->
<g id="node8" class="node">
<title>DecksRoutingModule</title>
<polygon fill="#8dd3c7" stroke="black" points="1006.65,-122 1003.65,-126 982.65,-126 979.65,-122 867.35,-122 867.35,-86 1006.65,-86 1006.65,-122"/>
<text text-anchor="middle" x="937" y="-99.8" font-family="Times,serif" font-size="14.00">DecksRoutingModule</text>
</g>
<!-- DecksRoutingModule&#45;&gt;DecksModule -->
<g id="edge7" class="edge">
<title>DecksRoutingModule&#45;&gt;DecksModule</title>
<path fill="none" stroke="black" d="M937,-122.29C937,-144.21 937,-178 937,-178 937,-178 554.09,-178 554.09,-178"/>
<polygon fill="black" stroke="black" points="554.09,-174.5 544.09,-178 554.09,-181.5 554.09,-174.5"/>
</g>
</g>
</svg>
