<?xml version="1.0" encoding="UTF-8" standalone="no"?>
<!DOCTYPE svg PUBLIC "-//W3C//DTD SVG 1.1//EN"
 "http://www.w3.org/Graphics/SVG/1.1/DTD/svg11.dtd">
<!-- Generated by graphviz version 2.47.0 (20210316.0004)
 -->
<!-- Title: dependencies Pages: 1 -->
<svg width="917pt" height="211pt"
 viewBox="0.00 0.00 917.00 211.00" xmlns="http://www.w3.org/2000/svg" xmlns:xlink="http://www.w3.org/1999/xlink">
<g id="graph0" class="graph" transform="scale(1 1) rotate(0) translate(4 207)">
<title>dependencies</title>
<polygon fill="white" stroke="transparent" points="-4,4 -4,-207 913,-207 913,4 -4,4"/>
<text text-anchor="start" x="433.51" y="-42.4" font-family="Times-12" font-weight="bold" font-size="14.00">Legend</text>
<polygon fill="#ffffb3" stroke="transparent" points="220.5,-10 220.5,-30 240.5,-30 240.5,-10 220.5,-10"/>
<text text-anchor="start" x="244.13" y="-15.4" font-family="Times-12" font-size="14.00"> &#160;Declarations</text>
<polygon fill="#8dd3c7" stroke="transparent" points="333.5,-10 333.5,-30 353.5,-30 353.5,-10 333.5,-10"/>
<text text-anchor="start" x="357.23" y="-15.4" font-family="Times-12" font-size="14.00"> &#160;Module</text>
<polygon fill="#80b1d3" stroke="transparent" points="419.5,-10 419.5,-30 439.5,-30 439.5,-10 419.5,-10"/>
<text text-anchor="start" x="443.28" y="-15.4" font-family="Times-12" font-size="14.00"> &#160;Bootstrap</text>
<polygon fill="#fdb462" stroke="transparent" points="516.5,-10 516.5,-30 536.5,-30 536.5,-10 516.5,-10"/>
<text text-anchor="start" x="540.17" y="-15.4" font-family="Times-12" font-size="14.00"> &#160;Providers</text>
<polygon fill="#fb8072" stroke="transparent" points="612.5,-10 612.5,-30 632.5,-30 632.5,-10 612.5,-10"/>
<text text-anchor="start" x="636.23" y="-15.4" font-family="Times-12" font-size="14.00"> &#160;Exports</text>
<g id="clust1" class="cluster">
<title>cluster_FlashcardsModule</title>
<polygon fill="none" stroke="black" stroke-dasharray="1,5" points="8,-70 8,-195 901,-195 901,-70 8,-70"/>
</g>
<g id="clust8" class="cluster">
<title>cluster_FlashcardsModule_imports</title>
<polygon fill="none" stroke="black" points="713,-78 713,-130 893,-130 893,-78 713,-78"/>
</g>
<g id="clust2" class="cluster">
<title>cluster_FlashcardsModule_declarations</title>
<polygon fill="none" stroke="black" points="16,-78 16,-130 705,-130 705,-78 16,-78"/>
</g>
<!-- FAddComponent -->
<g id="node1" class="node">
<title>FAddComponent</title>
<polygon fill="#ffffb3" stroke="black" points="696.72,-122 583.28,-122 583.28,-86 696.72,-86 696.72,-122"/>
<text text-anchor="middle" x="640" y="-99.8" font-family="Times,serif" font-size="14.00">FAddComponent</text>
</g>
<!-- FlashcardsModule -->
<g id="node6" class="node">
<title>FlashcardsModule</title>
<polygon fill="#8dd3c7" stroke="black" points="489.92,-187 486.92,-191 465.92,-191 462.92,-187 370.08,-187 370.08,-151 489.92,-151 489.92,-187"/>
<text text-anchor="middle" x="430" y="-164.8" font-family="Times,serif" font-size="14.00">FlashcardsModule</text>
</g>
<!-- FAddComponent&#45;&gt;FlashcardsModule -->
<g id="edge1" class="edge">
<title>FAddComponent&#45;&gt;FlashcardsModule</title>
<path fill="none" stroke="black" d="M640,-122.02C640,-139.37 640,-163 640,-163 640,-163 499.9,-163 499.9,-163"/>
<polygon fill="black" stroke="black" points="499.9,-159.5 489.9,-163 499.9,-166.5 499.9,-159.5"/>
</g>
<!-- FDeleteComponent -->
<g id="node2" class="node">
<title>FDeleteComponent</title>
<polygon fill="#ffffb3" stroke="black" points="565.65,-122 440.35,-122 440.35,-86 565.65,-86 565.65,-122"/>
<text text-anchor="middle" x="503" y="-99.8" font-family="Times,serif" font-size="14.00">FDeleteComponent</text>
</g>
<!-- FDeleteComponent&#45;&gt;FlashcardsModule -->
<g id="edge2" class="edge">
<title>FDeleteComponent&#45;&gt;FlashcardsModule</title>
<path fill="none" stroke="black" d="M464.94,-122.11C464.94,-122.11 464.94,-140.99 464.94,-140.99"/>
<polygon fill="black" stroke="black" points="461.44,-140.99 464.94,-150.99 468.44,-140.99 461.44,-140.99"/>
</g>
<!-- FDetailsComponent -->
<g id="node3" class="node">
<title>FDetailsComponent</title>
<polygon fill="#ffffb3" stroke="black" points="422.27,-122 293.73,-122 293.73,-86 422.27,-86 422.27,-122"/>
<text text-anchor="middle" x="358" y="-99.8" font-family="Times,serif" font-size="14.00">FDetailsComponent</text>
</g>
<!-- FDetailsComponent&#45;&gt;FlashcardsModule -->
<g id="edge3" class="edge">
<title>FDetailsComponent&#45;&gt;FlashcardsModule</title>
<path fill="none" stroke="black" d="M396.34,-122.11C396.34,-122.11 396.34,-140.99 396.34,-140.99"/>
<polygon fill="black" stroke="black" points="392.84,-140.99 396.34,-150.99 399.84,-140.99 392.84,-140.99"/>
</g>
<!-- FEditComponent -->
<g id="node4" class="node">
<title>FEditComponent</title>
<polygon fill="#ffffb3" stroke="black" points="275.45,-122 162.55,-122 162.55,-86 275.45,-86 275.45,-122"/>
<text text-anchor="middle" x="219" y="-99.8" font-family="Times,serif" font-size="14.00">FEditComponent</text>
</g>
<!-- FEditComponent&#45;&gt;FlashcardsModule -->
<g id="edge4" class="edge">
<title>FEditComponent&#45;&gt;FlashcardsModule</title>
<path fill="none" stroke="black" d="M219,-122.02C219,-139.37 219,-163 219,-163 219,-163 360.1,-163 360.1,-163"/>
<polygon fill="black" stroke="black" points="360.1,-166.5 370.1,-163 360.1,-159.5 360.1,-166.5"/>
</g>
<!-- FIndexComponent -->
<g id="node5" class="node">
<title>FIndexComponent</title>
<polygon fill="#ffffb3" stroke="black" points="144.49,-122 23.51,-122 23.51,-86 144.49,-86 144.49,-122"/>
<text text-anchor="middle" x="84" y="-99.8" font-family="Times,serif" font-size="14.00">FIndexComponent</text>
</g>
<!-- FIndexComponent&#45;&gt;FlashcardsModule -->
<g id="edge5" class="edge">
<title>FIndexComponent&#45;&gt;FlashcardsModule</title>
<path fill="none" stroke="black" d="M84,-122.28C84,-143.32 84,-175 84,-175 84,-175 360.13,-175 360.13,-175"/>
<polygon fill="black" stroke="black" points="360.13,-178.5 370.13,-175 360.13,-171.5 360.13,-178.5"/>
</g>
<!-- FlashcardsRoutingModule -->
<g id="node7" class="node">
<title>FlashcardsRoutingModule</title>
<polygon fill="#8dd3c7" stroke="black" points="885.04,-122 882.04,-126 861.04,-126 858.04,-122 720.96,-122 720.96,-86 885.04,-86 885.04,-122"/>
<text text-anchor="middle" x="803" y="-99.8" font-family="Times,serif" font-size="14.00">FlashcardsRoutingModule</text>
</g>
<!-- FlashcardsRoutingModule&#45;&gt;FlashcardsModule -->
<g id="edge6" class="edge">
<title>FlashcardsRoutingModule&#45;&gt;FlashcardsModule</title>
<path fill="none" stroke="black" d="M803,-122.28C803,-143.32 803,-175 803,-175 803,-175 499.93,-175 499.93,-175"/>
<polygon fill="black" stroke="black" points="499.93,-171.5 489.93,-175 499.93,-178.5 499.93,-171.5"/>
</g>
</g>
</svg>
