<?xml version="1.0" encoding="UTF-8" standalone="no"?>
<!DOCTYPE svg PUBLIC "-//W3C//DTD SVG 1.1//EN"
 "http://www.w3.org/Graphics/SVG/1.1/DTD/svg11.dtd">
<!-- Generated by graphviz version 2.47.0 (20210316.0004)
 -->
<!-- Title: dependencies Pages: 1 -->
<svg width="759pt" height="211pt"
 viewBox="0.00 0.00 759.00 211.00" xmlns="http://www.w3.org/2000/svg" xmlns:xlink="http://www.w3.org/1999/xlink">
<g id="graph0" class="graph" transform="scale(1 1) rotate(0) translate(4 207)">
<title>dependencies</title>
<polygon fill="white" stroke="transparent" points="-4,4 -4,-207 755,-207 755,4 -4,4"/>
<text text-anchor="start" x="354.51" y="-42.4" font-family="Times-12" font-weight="bold" font-size="14.00">Legend</text>
<polygon fill="#ffffb3" stroke="transparent" points="141.5,-10 141.5,-30 161.5,-30 161.5,-10 141.5,-10"/>
<text text-anchor="start" x="165.13" y="-15.4" font-family="Times-12" font-size="14.00"> &#160;Declarations</text>
<polygon fill="#8dd3c7" stroke="transparent" points="254.5,-10 254.5,-30 274.5,-30 274.5,-10 254.5,-10"/>
<text text-anchor="start" x="278.23" y="-15.4" font-family="Times-12" font-size="14.00"> &#160;Module</text>
<polygon fill="#80b1d3" stroke="transparent" points="340.5,-10 340.5,-30 360.5,-30 360.5,-10 340.5,-10"/>
<text text-anchor="start" x="364.28" y="-15.4" font-family="Times-12" font-size="14.00"> &#160;Bootstrap</text>
<polygon fill="#fdb462" stroke="transparent" points="437.5,-10 437.5,-30 457.5,-30 457.5,-10 437.5,-10"/>
<text text-anchor="start" x="461.17" y="-15.4" font-family="Times-12" font-size="14.00"> &#160;Providers</text>
<polygon fill="#fb8072" stroke="transparent" points="533.5,-10 533.5,-30 553.5,-30 553.5,-10 533.5,-10"/>
<text text-anchor="start" x="557.23" y="-15.4" font-family="Times-12" font-size="14.00"> &#160;Exports</text>
<g id="clust1" class="cluster">
<title>cluster_UserDashboardModule</title>
<polygon fill="none" stroke="black" stroke-dasharray="1,5" points="8,-70 8,-195 743,-195 743,-70 8,-70"/>
</g>
<g id="clust6" class="cluster">
<title>cluster_UserDashboardModule_imports</title>
<polygon fill="none" stroke="black" points="527,-78 527,-130 735,-130 735,-78 527,-78"/>
</g>
<g id="clust2" class="cluster">
<title>cluster_UserDashboardModule_declarations</title>
<polygon fill="none" stroke="black" points="16,-78 16,-130 519,-130 519,-78 16,-78"/>
</g>
<!-- DashboardLayoutComponent -->
<g id="node1" class="node">
<title>DashboardLayoutComponent</title>
<polygon fill="#ffffb3" stroke="black" points="510.63,-122 329.37,-122 329.37,-86 510.63,-86 510.63,-122"/>
<text text-anchor="middle" x="420" y="-99.8" font-family="Times,serif" font-size="14.00">DashboardLayoutComponent</text>
</g>
<!-- UserDashboardModule -->
<g id="node4" class="node">
<title>UserDashboardModule</title>
<polygon fill="#8dd3c7" stroke="black" points="404.12,-187 401.12,-191 380.12,-191 377.12,-187 257.88,-187 257.88,-151 404.12,-151 404.12,-187"/>
<text text-anchor="middle" x="331" y="-164.8" font-family="Times,serif" font-size="14.00">UserDashboardModule</text>
</g>
<!-- DashboardLayoutComponent&#45;&gt;UserDashboardModule -->
<g id="edge1" class="edge">
<title>DashboardLayoutComponent&#45;&gt;UserDashboardModule</title>
<path fill="none" stroke="black" d="M366.75,-122.11C366.75,-122.11 366.75,-140.99 366.75,-140.99"/>
<polygon fill="black" stroke="black" points="363.25,-140.99 366.75,-150.99 370.25,-140.99 363.25,-140.99"/>
</g>
<!-- SidemenuComponent -->
<g id="node2" class="node">
<title>SidemenuComponent</title>
<polygon fill="#ffffb3" stroke="black" points="311.83,-122 174.17,-122 174.17,-86 311.83,-86 311.83,-122"/>
<text text-anchor="middle" x="243" y="-99.8" font-family="Times,serif" font-size="14.00">SidemenuComponent</text>
</g>
<!-- SidemenuComponent&#45;&gt;UserDashboardModule -->
<g id="edge2" class="edge">
<title>SidemenuComponent&#45;&gt;UserDashboardModule</title>
<path fill="none" stroke="black" d="M284.68,-122.11C284.68,-122.11 284.68,-140.99 284.68,-140.99"/>
<polygon fill="black" stroke="black" points="281.18,-140.99 284.68,-150.99 288.18,-140.99 281.18,-140.99"/>
</g>
<!-- UHeaderComponent -->
<g id="node3" class="node">
<title>UHeaderComponent</title>
<polygon fill="#ffffb3" stroke="black" points="155.85,-122 24.15,-122 24.15,-86 155.85,-86 155.85,-122"/>
<text text-anchor="middle" x="90" y="-99.8" font-family="Times,serif" font-size="14.00">UHeaderComponent</text>
</g>
<!-- UHeaderComponent&#45;&gt;UserDashboardModule -->
<g id="edge3" class="edge">
<title>UHeaderComponent&#45;&gt;UserDashboardModule</title>
<path fill="none" stroke="black" d="M90,-122.11C90,-141.34 90,-169 90,-169 90,-169 247.71,-169 247.71,-169"/>
<polygon fill="black" stroke="black" points="247.71,-172.5 257.71,-169 247.71,-165.5 247.71,-172.5"/>
</g>
<!-- UserDashboardRoutingModule -->
<g id="node5" class="node">
<title>UserDashboardRoutingModule</title>
<polygon fill="#8dd3c7" stroke="black" points="726.74,-122 723.74,-126 702.74,-126 699.74,-122 535.26,-122 535.26,-86 726.74,-86 726.74,-122"/>
<text text-anchor="middle" x="631" y="-99.8" font-family="Times,serif" font-size="14.00">UserDashboardRoutingModule</text>
</g>
<!-- UserDashboardRoutingModule&#45;&gt;UserDashboardModule -->
<g id="edge4" class="edge">
<title>UserDashboardRoutingModule&#45;&gt;UserDashboardModule</title>
<path fill="none" stroke="black" d="M631,-122.11C631,-141.34 631,-169 631,-169 631,-169 414.39,-169 414.39,-169"/>
<polygon fill="black" stroke="black" points="414.39,-165.5 404.39,-169 414.39,-172.5 414.39,-165.5"/>
</g>
</g>
</svg>
