<?xml version="1.0" encoding="UTF-8" standalone="no"?>
<!DOCTYPE svg PUBLIC "-//W3C//DTD SVG 1.1//EN"
 "http://www.w3.org/Graphics/SVG/1.1/DTD/svg11.dtd">
<!-- Generated by graphviz version 2.47.0 (20210316.0004)
 -->
<!-- Title: dependencies Pages: 1 -->
<svg width="924pt" height="211pt"
 viewBox="0.00 0.00 924.00 211.00" xmlns="http://www.w3.org/2000/svg" xmlns:xlink="http://www.w3.org/1999/xlink">
<g id="graph0" class="graph" transform="scale(1 1) rotate(0) translate(4 207)">
<title>dependencies</title>
<polygon fill="white" stroke="transparent" points="-4,4 -4,-207 920,-207 920,4 -4,4"/>
<text text-anchor="start" x="437.01" y="-42.4" font-family="Times-12" font-weight="bold" font-size="14.00">Legend</text>
<polygon fill="#ffffb3" stroke="transparent" points="224,-10 224,-30 244,-30 244,-10 224,-10"/>
<text text-anchor="start" x="247.63" y="-15.4" font-family="Times-12" font-size="14.00"> &#160;Declarations</text>
<polygon fill="#8dd3c7" stroke="transparent" points="337,-10 337,-30 357,-30 357,-10 337,-10"/>
<text text-anchor="start" x="360.73" y="-15.4" font-family="Times-12" font-size="14.00"> &#160;Module</text>
<polygon fill="#80b1d3" stroke="transparent" points="423,-10 423,-30 443,-30 443,-10 423,-10"/>
<text text-anchor="start" x="446.78" y="-15.4" font-family="Times-12" font-size="14.00"> &#160;Bootstrap</text>
<polygon fill="#fdb462" stroke="transparent" points="520,-10 520,-30 540,-30 540,-10 520,-10"/>
<text text-anchor="start" x="543.67" y="-15.4" font-family="Times-12" font-size="14.00"> &#160;Providers</text>
<polygon fill="#fb8072" stroke="transparent" points="616,-10 616,-30 636,-30 636,-10 616,-10"/>
<text text-anchor="start" x="639.73" y="-15.4" font-family="Times-12" font-size="14.00"> &#160;Exports</text>
<g id="clust1" class="cluster">
<title>cluster_PublicModule</title>
<polygon fill="none" stroke="black" stroke-dasharray="1,5" points="8,-70 8,-195 908,-195 908,-70 8,-70"/>
</g>
<g id="clust8" class="cluster">
<title>cluster_PublicModule_imports</title>
<polygon fill="none" stroke="black" points="744,-78 744,-130 900,-130 900,-78 744,-78"/>
</g>
<g id="clust2" class="cluster">
<title>cluster_PublicModule_declarations</title>
<polygon fill="none" stroke="black" points="16,-78 16,-130 736,-130 736,-78 16,-78"/>
</g>
<!-- DecksComponent -->
<g id="node1" class="node">
<title>DecksComponent</title>
<polygon fill="#ffffb3" stroke="black" points="728.31,-122 611.69,-122 611.69,-86 728.31,-86 728.31,-122"/>
<text text-anchor="middle" x="670" y="-99.8" font-family="Times,serif" font-size="14.00">DecksComponent</text>
</g>
<!-- PublicModule -->
<g id="node6" class="node">
<title>PublicModule</title>
<polygon fill="#8dd3c7" stroke="black" points="490.83,-187 487.83,-191 466.83,-191 463.83,-187 395.17,-187 395.17,-151 490.83,-151 490.83,-187"/>
<text text-anchor="middle" x="443" y="-164.8" font-family="Times,serif" font-size="14.00">PublicModule</text>
</g>
<!-- DecksComponent&#45;&gt;PublicModule -->
<g id="edge1" class="edge">
<title>DecksComponent&#45;&gt;PublicModule</title>
<path fill="none" stroke="black" d="M670,-122.02C670,-139.37 670,-163 670,-163 670,-163 500.86,-163 500.86,-163"/>
<polygon fill="black" stroke="black" points="500.86,-159.5 490.86,-163 500.86,-166.5 500.86,-159.5"/>
</g>
<!-- DecksDetailComponent -->
<g id="node2" class="node">
<title>DecksDetailComponent</title>
<polygon fill="#ffffb3" stroke="black" points="594.02,-122 443.98,-122 443.98,-86 594.02,-86 594.02,-122"/>
<text text-anchor="middle" x="519" y="-99.8" font-family="Times,serif" font-size="14.00">DecksDetailComponent</text>
</g>
<!-- DecksDetailComponent&#45;&gt;PublicModule -->
<g id="edge2" class="edge">
<title>DecksDetailComponent&#45;&gt;PublicModule</title>
<path fill="none" stroke="black" d="M467.2,-122.11C467.2,-122.11 467.2,-140.99 467.2,-140.99"/>
<polygon fill="black" stroke="black" points="463.7,-140.99 467.2,-150.99 470.7,-140.99 463.7,-140.99"/>
</g>
<!-- HomeComponent -->
<g id="node3" class="node">
<title>HomeComponent</title>
<polygon fill="#ffffb3" stroke="black" points="425.55,-122 310.45,-122 310.45,-86 425.55,-86 425.55,-122"/>
<text text-anchor="middle" x="368" y="-99.8" font-family="Times,serif" font-size="14.00">HomeComponent</text>
</g>
<!-- HomeComponent&#45;&gt;PublicModule -->
<g id="edge3" class="edge">
<title>HomeComponent&#45;&gt;PublicModule</title>
<path fill="none" stroke="black" d="M410.55,-122.11C410.55,-122.11 410.55,-140.99 410.55,-140.99"/>
<polygon fill="black" stroke="black" points="407.05,-140.99 410.55,-150.99 414.05,-140.99 407.05,-140.99"/>
</g>
<!-- LayoutComponent -->
<g id="node4" class="node">
<title>LayoutComponent</title>
<polygon fill="#ffffb3" stroke="black" points="292.49,-122 171.51,-122 171.51,-86 292.49,-86 292.49,-122"/>
<text text-anchor="middle" x="232" y="-99.8" font-family="Times,serif" font-size="14.00">LayoutComponent</text>
</g>
<!-- LayoutComponent&#45;&gt;PublicModule -->
<g id="edge4" class="edge">
<title>LayoutComponent&#45;&gt;PublicModule</title>
<path fill="none" stroke="black" d="M232,-122.02C232,-139.37 232,-163 232,-163 232,-163 385.12,-163 385.12,-163"/>
<polygon fill="black" stroke="black" points="385.12,-166.5 395.12,-163 385.12,-159.5 385.12,-166.5"/>
</g>
<!-- PHeaderComponent -->
<g id="node5" class="node">
<title>PHeaderComponent</title>
<polygon fill="#ffffb3" stroke="black" points="153.53,-122 24.47,-122 24.47,-86 153.53,-86 153.53,-122"/>
<text text-anchor="middle" x="89" y="-99.8" font-family="Times,serif" font-size="14.00">PHeaderComponent</text>
</g>
<!-- PHeaderComponent&#45;&gt;PublicModule -->
<g id="edge5" class="edge">
<title>PHeaderComponent&#45;&gt;PublicModule</title>
<path fill="none" stroke="black" d="M89,-122.28C89,-143.32 89,-175 89,-175 89,-175 385.26,-175 385.26,-175"/>
<polygon fill="black" stroke="black" points="385.26,-178.5 395.26,-175 385.26,-171.5 385.26,-178.5"/>
</g>
<!-- PublicRoutingModule -->
<g id="node7" class="node">
<title>PublicRoutingModule</title>
<polygon fill="#8dd3c7" stroke="black" points="892.45,-122 889.45,-126 868.45,-126 865.45,-122 751.55,-122 751.55,-86 892.45,-86 892.45,-122"/>
<text text-anchor="middle" x="822" y="-99.8" font-family="Times,serif" font-size="14.00">PublicRoutingModule</text>
</g>
<!-- PublicRoutingModule&#45;&gt;PublicModule -->
<g id="edge6" class="edge">
<title>PublicRoutingModule&#45;&gt;PublicModule</title>
<path fill="none" stroke="black" d="M822,-122.28C822,-143.32 822,-175 822,-175 822,-175 501,-175 501,-175"/>
<polygon fill="black" stroke="black" points="501,-171.5 491,-175 501,-178.5 501,-171.5"/>
</g>
</g>
</svg>
